<?xml version="1.0" encoding="UTF-8"?>
<svg version="1.0" viewBox="0 0 673 160" xmlns="http://www.w3.org/2000/svg">
    <g transform="translate(0 160) scale(.1 -.1)" fill="#fff">
        <path d="m5740 1287c-16-8-33-33-47-67-19-46-22-75-23-176 0-121 0-122-32-170-18-27-48-57-65-67l-32-19 6 79c7 98-8 174-50 244-63 106-165 144-257 97-74-38-108-134-81-228 15-52-43-180-102-223-34-26-71-38-91-31-8 3-3 40 21 132 57 225 43 328-49 366-48 20-48 20-95 0-40-16-52-27-73-69-23-45-25-62-25-175 0-141 14-199 67-271l31-43-24-43c-32-59-66-100-74-91-4 4-27 121-50 260-54 317-70 365-135 390-20 7-27 5-42-14-17-22-18-22-19-3 0 11-3 14-6 7-2-6-8-10-13-7-15 9-33-26-33-68 0-23 1-73 2-112 7-160-136-509-181-444-15 23-1 146 42 349 40 194 49 285 30 321-6 10-32 29-58 41-38 19-64 23-137 23-79 0-97-4-143-28-103-54-162-126-197-237-9-30-22-65-28-78-12-25-72-64-126-83-30-11-35-9-68 22-44 42-115 134-137 176-37 74-7 160 49 135 23-10 34-35 49-113 5-25 36-37 36-15 0 6 4 4 9-3 16-25 35 31 26 75-14 79-103 130-185 105-81-24-123-82-123-171 0-67 14-96 100-202 57-70 64-84 54-100-87-140-111-276-66-372 40-84 188-103 263-33 80 74 91 241 26 370-14 27-24 50-22 51s29 14 61 29l57 27 1-53c1-117 57-187 150-187 56 0 100 31 126 89l15 36 15-80c19-111 43-158 94-181 23-10 59-17 80-17 87 4 135 58 185 210l31 94 21-86c32-130 85-197 171-216 92-21 163 27 223 151 27 56 37 68 51 64 38-12 107 7 152 41l44 34 7-37c34-188 234-232 332-74 16 26 33 58 36 70 4 12 14 22 22 22 28 0 91 39 127 79 20 22 38 37 40 33 3-4 10-25 17-47 52-162 153-269 225-237 30 14 39 47 66 232 33 233 70 352 134 429 15 17 31 29 36 25 17-10 9-130-15-250-81-399-72-573 34-683 103-106 221-61 284 111 45 122 110 498 93 542-9 22-54 21-61-1-3-10-10-56-16-103-35-267-114-530-160-530-15 0-30 70-30 137 0 34 14 149 31 255 54 344 36 507-63 568-40 24-86 25-136 4-101-42-159-160-193-395-17-124-26-125-33-3-11 203-26 345-40 378-10 25-22 35-46 40-18 3-34 5-36 3-2-1-12-34-23-72-16-59-20-64-20-35-1 19 3 51 9 69 5 19 8 36 7 37-1 2-14-3-27-9zm-813-144c11-28 14-56 9-108-7-86-26-185-36-185-11 0-30 131-30 209 0 115 27 155 57 84zm-772 5c-3-13-15-58-26-101-10-42-42-127-70-189-88-192-105-204-96-65 6 100 36 205 81 281 42 72 129 129 111 74zm1205 7c73-38 116-149 107-278-3-44-10-84-16-90-14-14-86 19-116 54l-23 28 20 91c24 109 20 118-52 115-56-2-61 6-35 55 22 43 63 52 115 25zm-1099-195c-31-153-41-157-16-5 19 115 39 196 42 170 1-11-10-85-26-165zm1779 75c-10-33-19-53-19-44-1 18 30 112 35 107 2-2-5-31-16-63zm206-22c-15-144-51-365-54-338-4 30 49 395 57 395 2 0 1-26-3-57zm-2365-8c-19-61-31-79-31-46 0 20 35 101 44 101 2 0-4-25-13-55zm2336 33c-3-8-6-5-6 6-1 11 2 17 5 13 3-3 4-12 1-19zm-2270-45c-9-26-21-68-27-92-6-23-13-41-16-39-7 7 16 115 32 154 21 51 29 35 11-23zm2060 25c-3-8-6-5-6 6-1 11 2 17 5 13 3-3 4-12 1-19zm-1040-20c-3-7-5-2-5 12s2 19 5 13c2-7 2-19 0-25zm1240-15c-3-10-5-4-5 12 0 17 2 24 5 18 2-7 2-21 0-30zm-210-15c-3-7-5-2-5 12s2 19 5 13c2-7 2-19 0-25zm-1027-105c-12-49-26-92-30-97-5-5 2 34 16 85 13 52 24 105 25 119 2 23 2 24 6 3 2-13-5-62-17-110zm-26 11c-9-41-20-77-25-79-4-3-3 12 2 33 5 20 15 64 22 97 6 33 13 52 15 41 2-10-4-52-14-92zm1073 64c-3-7-5-2-5 12s2 19 5 13c2-7 2-19 0-25zm278-105c-9-70-23-162-30-203-14-75-14-75-10-15 7 84 47 356 52 351 3-3-3-62-12-133zm-98 90c-3-10-5-4-5 12 0 17 2 24 5 18 2-7 2-21 0-30zm-210-5c-3-7-5-2-5 12s2 19 5 13c2-7 2-19 0-25zm-2140-40c-3-8-6-5-6 6-1 11 2 17 5 13 3-3 4-12 1-19zm2130-10c-3-7-5-2-5 12s2 19 5 13c2-7 2-19 0-25zm207-27c-4-28-9-50-11-47-3 3-2 28 2 56s9 49 12 47c2-3 1-28-3-56zm-1957-78c-3-10-5-2-5 17s2 27 5 18c2-10 2-26 0-35zm1940-25c-3-7-5-2-5 12s2 19 5 13c2-7 2-19 0-25zm-762-28c22 0 19-20-11-64-29-43-31-42-65 32-30 67-26 76 21 52 21-11 46-20 55-20zm-1854-92c25-118 9-228-34-228-37 0-61 142-37 216 16 47 40 85 50 79 4-2 13-33 21-67z"/>
        <path d="m930 1266c-19-7-46-18-60-23-43-18-130-103-154-152-13-25-31-71-39-101-9-31-26-66-38-79-29-31-124-74-148-66-19 6-71 64-135 153-43 59-58 131-36 171 26 49 84 2 98-78 5-31 13-45 25-47 9-1 17 3 17 9 0 8 4 7 9-2 16-25 33 25 25 72-15 90-117 141-205 101-97-43-133-156-82-257 7-15 43-63 78-107 36-44 65-82 65-85 0-2-14-26-30-52-69-108-89-265-44-343 52-88 207-94 277-11 39 47 50 93 45 195-3 72-10 103-31 150-15 32-26 60-25 61 2 1 28 13 58 27l55 25 2-51c4-69 28-130 64-161 24-20 41-25 84-25 61 0 103 27 125 80 7 16 15 30 19 30s13-33 19-72c24-139 75-195 175-191 87 4 144 74 192 241l22 77 12-70c32-183 130-276 259-243 51 13 104 68 146 154l29 59 57 1c58 1 90 15 142 62l27 24 11-41c6-23 24-56 39-73 24-27 36-32 87-36 70-5 101 14 136 81 21 39 23 40 25 17 10-76 37-172 54-195 44-56 133-74 197-41 62 32 94 100 162 344 35 127 36 155 3 160-27 4-31-4-73-153-53-185-122-306-152-264-15 23-1 143 42 349 40 197 49 285 30 321-18 32-98 63-178 67-187 11-328-117-377-341-22-99-64-163-126-195-76-38-81-28-47 96 18 67 31 143 34 202 7 121-8 155-78 184-48 20-48 20-95 0-73-30-97-79-101-215-6-146 16-226 90-331 10-13 4-28-31-82-24-36-47-66-51-66-11 0-26 69-60 285-17 105-39 219-50 255-28 95-82 139-120 98-19-21-20-21-21-2 0 10-3 13-6 6-2-6-8-10-13-7-4 3-14-3-21-11-10-12-14-53-14-148-1-118-4-140-32-226-39-120-74-199-102-228s-39-28-47 4c-10 39 2 129 46 344 41 199 48 276 30 311-29 53-208 87-290 55zm870-106c20-37 22-106 5-205-9-55-20-104-25-108-12-13-30 110-30 207 0 111 22 158 50 106zm-764-7c-4-9-16-55-28-102-21-84-134-341-157-355-8-5-11 14-11 67 0 141 64 316 139 378 40 33 67 39 57 12zm1369 0c-3-10-15-54-25-98-16-67-90-245-138-332-22-40-32-25-32 45 0 142 68 318 142 372 47 34 63 38 53 13zm-1264-183c-34-168-40-160-11 16 20 126 32 171 37 144 2-8-10-80-26-160zm1370-12c-17-90-32-174-35-188-13-70 8 121 25 220 22 128 30 161 36 143 3-7-9-86-26-175zm-379 47c-14-52-32-74-32-40 0 15 37 95 44 95 2 0-4-25-12-55zm-1377-14c-9-28-21-49-25-46-10 6-5 25 18 72 23 46 27 33 7-26zm67-13c-11-35-24-76-28-93-5-19-9-24-11-14-4 19 23 133 39 162 19 37 20 7 0-55zm1363-24c-25-87-35-111-35-83 0 24 30 140 41 161 21 40 19 9-6-78zm-338 54c-3-8-6-5-6 6-1 11 2 17 5 13 3-3 4-12 1-19zm3-135c-12-52-24-93-26-90-2 2 6 52 19 111 12 60 24 100 25 91 2-10-6-60-18-112zm-25 8c-9-36-21-73-26-81-9-12-10-12-5 3 3 10 14 57 23 105 10 47 19 76 21 63s-4-53-13-90zm-1098-3c-3-8-6-5-6 6-1 11 2 17 5 13 3-3 4-12 1-19zm380-105c-3-10-5-2-5 17s2 27 5 18c2-10 2-26 0-35zm-669-201c18-135-34-241-74-147-27 65-16 185 22 244l18 26 13-33c7-18 17-59 21-90z"/>
    </g>
</svg>
